<svg version="1.1" id="Layer_1" xmlns="http://www.w3.org/2000/svg" xmlns:xlink="http://www.w3.org/1999/xlink" x="0px" y="0px"
	 width="100%" viewBox="0 0 512 512" enable-background="new 0 0 512 512" xml:space="preserve">
<path fill="#000000" opacity="1.000000" stroke="none" 
	d="
M223.000000,513.000000 
	C148.684677,513.000000 74.869362,513.000000 1.027019,513.000000 
	C1.027019,342.392975 1.027019,171.785965 1.027019,1.089473 
	C171.565353,1.089473 342.130768,1.089473 512.848083,1.089473 
	C512.848083,171.666565 512.848083,342.333252 512.848083,513.000000 
	C416.452606,513.000000 319.976288,513.000000 223.000000,513.000000 
M270.140930,287.059784 
	C266.099792,287.104675 262.058624,287.149597 257.192261,287.012634 
	C253.112228,286.995148 249.024078,286.845551 244.960495,287.095551 
	C244.314423,287.135254 243.778885,288.971771 243.053955,290.908691 
	C243.037018,302.555664 243.002731,314.202667 243.010040,325.849640 
	C243.014023,332.200684 246.552795,335.798767 253.045517,335.979828 
	C256.869385,336.086487 260.698761,335.996460 264.525665,335.996063 
	C270.280487,335.995483 276.035309,335.995911 282.376404,335.995911 
	C281.502045,335.484802 281.043304,335.018494 280.529144,334.946136 
	C273.815460,334.001587 273.917877,329.094086 273.968689,324.032104 
	C274.037048,317.215057 273.887299,310.395844 273.980103,302.711731 
	C273.922485,298.097534 273.864868,293.483307 273.918762,288.476501 
	C273.918762,288.476501 273.805359,288.084442 273.859985,287.487823 
	C272.914734,287.390381 271.969513,287.292908 270.140930,287.059784 
M449.943420,215.892273 
	C449.882782,214.178589 449.822144,212.464890 449.939514,210.222488 
	C449.903687,209.483765 449.867889,208.745056 449.967773,207.227509 
	C449.922546,203.820465 449.877289,200.413406 449.947754,196.243774 
	C448.001190,192.482513 446.054657,188.721237 443.799408,184.341095 
	C438.677032,178.956970 431.975616,177.157318 424.992249,177.090500 
	C401.508240,176.865768 378.020691,177.003235 354.534546,177.033142 
	C353.416168,177.034576 352.298187,177.332794 351.180023,177.492813 
	C358.360107,177.958954 358.043976,182.688980 357.997406,187.710571 
	C357.881561,200.196579 358.075836,212.685486 358.037842,226.064102 
	C358.081726,230.711853 358.125610,235.359589 358.041443,240.931015 
	C358.319977,245.967987 358.598541,251.004959 358.970245,256.966278 
	C358.972534,260.945496 358.746552,264.945129 359.099457,268.893005 
	C359.224915,270.296234 360.481964,272.362030 361.690521,272.783661 
	C371.160492,276.087036 380.732758,279.101196 390.310120,282.086945 
	C391.304443,282.396881 392.815918,282.337891 393.614838,281.776978 
	C399.145752,277.893829 404.551392,273.832245 410.695923,269.733856 
	C411.118195,269.493103 411.544495,269.259125 411.962189,269.010620 
	C419.566284,264.486420 427.169403,259.960480 435.000732,255.398926 
	C435.000732,255.398926 435.128082,254.981903 435.612549,254.949875 
	C435.612549,254.949875 436.079742,254.817657 436.797424,254.628372 
	C440.449921,249.932343 444.102448,245.236313 448.016602,239.871216 
	C448.621490,235.250046 449.226349,230.628891 449.967285,225.258606 
	C449.919525,224.501831 449.871796,223.745071 449.950226,222.205505 
	C449.899506,220.379944 449.848785,218.554367 449.943420,215.892273 
M196.000702,220.987808 
	C196.000702,220.987808 196.059311,220.958069 195.793900,220.321930 
	C194.138062,217.885162 192.482239,215.448395 190.750854,212.354263 
	C189.205963,210.550781 187.661072,208.747299 186.031616,206.204208 
	C184.394302,203.455841 182.756989,200.707458 181.001816,197.250290 
	C178.705276,193.818542 176.408722,190.386795 173.996597,186.251923 
	C170.730728,178.998779 165.077072,176.382233 157.271927,176.913742 
	C150.838516,177.351852 144.351669,176.981873 137.889175,177.042557 
	C136.989655,177.050995 136.094009,177.475266 135.196579,177.707031 
	C140.986435,178.505188 143.072647,181.864288 143.046127,187.916946 
	C143.086426,191.279404 143.126724,194.641876 143.041885,198.831970 
	C143.085846,201.851852 143.129807,204.871719 143.046906,208.540253 
	C143.100998,210.586166 143.155075,212.632065 143.076263,215.058044 
	C143.068771,215.178375 143.034073,215.304855 143.059555,215.417755 
	C143.109894,215.640915 143.193542,215.856567 143.072617,216.939865 
	C143.109787,220.036606 143.146942,223.133362 143.062271,226.869278 
	C143.106186,227.299103 143.150101,227.728943 143.042572,228.910629 
	C143.084778,230.183640 143.126984,231.456650 143.040421,233.294540 
	C143.088211,233.868011 143.136002,234.441483 143.051117,235.906631 
	C143.097519,238.610168 143.143921,241.313690 143.055283,244.942963 
	C143.055283,253.847076 143.055283,262.751190 143.055283,271.688599 
	C153.617081,269.284393 163.798599,266.966736 173.792755,264.691742 
	C173.792755,258.320770 173.792755,252.529434 174.166702,246.289413 
	C177.448166,242.167999 180.134338,244.452148 182.578018,247.208282 
	C184.821075,249.738144 186.835190,252.471039 189.236023,255.736557 
	C191.709274,257.752228 194.205032,261.500610 196.651657,261.468811 
	C205.037598,261.359833 213.390442,259.695923 221.789825,259.115540 
	C224.883789,258.901764 226.741730,258.249878 227.831741,254.993576 
	C230.206543,252.178162 232.373291,249.140808 235.042145,246.639069 
	C236.420044,245.347458 238.799713,244.262558 240.515854,244.515488 
	C241.553131,244.668335 242.640198,247.497360 242.895950,249.242493 
	C243.293182,251.953156 243.000900,254.764877 243.000900,258.268890 
	C253.781815,258.268890 264.083618,258.268890 273.834320,258.268890 
	C273.834320,253.431244 273.834320,248.218994 273.973022,242.126160 
	C273.927032,239.751892 273.881042,237.377609 273.969360,234.298355 
	C273.923218,231.460678 273.877075,228.623001 273.967316,224.992828 
	C273.923004,220.998947 273.878693,217.005051 273.972748,212.092224 
	C273.927765,208.064545 273.882782,204.036865 273.972443,199.090057 
	C273.928589,195.062881 273.884705,191.035690 273.977600,186.236374 
	C274.304169,181.389450 276.703796,178.496979 281.981171,177.898865 
	C280.305298,177.196762 278.819183,177.026459 277.332275,177.019226 
	C270.881226,176.987778 264.421021,177.217087 257.981079,176.947372 
	C250.387421,176.629364 245.579742,180.091736 242.283279,187.269485 
	C240.505112,190.152344 238.726944,193.035187 236.500656,196.118622 
	C236.175812,196.327698 236.073227,196.615952 236.014542,197.453430 
	C235.972473,197.615631 235.930420,197.777832 235.300018,198.298874 
	C232.590317,202.870468 229.880600,207.442062 226.850464,212.634018 
	C223.957108,217.091949 221.063751,221.549866 217.865723,226.631119 
	C216.633926,228.756485 215.402130,230.881866 213.857315,233.623077 
	C212.432388,235.911865 211.007477,238.200638 209.543457,240.560989 
	C209.543457,240.560989 209.474396,240.604340 208.846710,240.659882 
	C206.494217,237.101685 204.141739,233.543503 201.808945,229.492752 
	C201.633026,229.187485 201.372055,229.001663 200.997375,228.989990 
	C200.997375,228.989990 201.052902,228.962936 200.791565,228.329529 
	C199.460129,226.212891 198.128693,224.096268 196.813766,221.485901 
	C196.637085,221.180069 196.375275,220.994156 196.000702,220.987808 
M115.953163,259.227875 
	C115.898758,257.047455 115.844345,254.867020 115.960419,251.983597 
	C115.918411,249.620224 115.876404,247.256851 115.970871,244.022903 
	C115.925209,239.351013 115.879547,234.679123 115.973816,229.207260 
	C115.925735,223.678192 115.877655,218.149109 115.962143,211.838593 
	C115.916626,207.435211 115.871101,203.031845 115.953537,197.846069 
	C115.912521,193.901627 115.871513,189.957199 115.996140,185.269974 
	C116.747398,180.954636 119.219284,178.457596 123.644058,177.610565 
	C108.535507,177.610565 93.426956,177.610565 78.318405,177.610565 
	C82.846252,178.848373 85.485237,181.133469 85.048393,186.930511 
	C85.089859,190.957596 85.131317,194.984665 85.049225,199.932510 
	C85.089142,204.292175 85.129059,208.651840 85.043930,213.937897 
	C85.086761,219.294556 85.129601,224.651199 85.045120,230.934555 
	C85.085571,236.290131 85.126022,241.645691 85.035515,247.915054 
	C85.078659,251.612900 85.121811,255.310760 85.036774,259.935028 
	C85.084160,265.295319 85.131546,270.655609 85.050392,276.941559 
	C85.050392,282.460297 85.050392,287.979034 85.050392,293.479950 
	C94.103447,289.617004 102.696930,285.841095 111.385773,282.299103 
	C114.630890,280.976196 116.391228,279.321991 116.065109,275.444275 
	C115.635544,270.336487 115.854996,265.174103 115.953163,259.227875 
M331.852295,293.543060 
	C322.578094,292.025391 313.312836,290.446014 304.014313,289.095795 
	C303.183441,288.975128 302.136719,290.340881 301.053314,291.942627 
	C301.037262,303.082886 300.862305,314.226227 301.077454,325.362000 
	C301.173767,330.347595 300.471588,334.218872 294.566620,334.897858 
	C293.973389,334.966064 293.449738,335.639221 292.249695,336.486206 
	C308.696289,336.486206 324.248657,336.486206 340.428925,336.486206 
	C331.999359,331.574097 332.019196,331.574036 331.992950,322.516205 
	C331.975616,316.533691 331.891144,310.551422 331.984894,303.716553 
	C331.929779,300.740723 331.874664,297.764862 331.929169,294.528290 
	C331.929169,294.528290 331.818756,294.267853 331.852295,293.543060 
M301.045959,187.916901 
	C301.088470,192.911453 301.131012,197.905991 301.045166,203.680466 
	C301.087189,208.318405 301.129211,212.956329 301.048676,218.425552 
	C301.108459,222.522095 301.168213,226.618652 301.072968,231.575607 
	C301.112518,235.057465 301.152069,238.539322 301.057159,242.945755 
	C301.057159,248.754913 301.057159,254.564072 301.057159,260.744690 
	C311.336060,262.382965 321.426514,263.991211 331.831146,265.649536 
	C331.831146,261.789978 331.831146,257.838715 331.972717,253.016190 
	C331.927277,247.681183 331.881836,242.346161 331.977814,236.254959 
	C331.929810,230.035095 331.881805,223.815216 331.969513,216.825775 
	C331.923309,211.845230 331.877075,206.864700 331.964325,201.085464 
	C331.920837,196.393448 331.877350,191.701416 331.964050,186.205338 
	C331.105286,180.353088 335.766327,179.351456 339.544952,177.393402 
	C324.140686,177.393402 308.736420,177.393402 293.332123,177.393402 
	C298.356445,178.812134 301.387726,181.529922 301.045959,187.916901 
M182.809708,286.676910 
	C187.113373,286.118408 191.418015,285.567169 195.720474,284.999573 
	C201.148773,284.283356 206.575317,283.553833 212.926727,282.974854 
	C238.613449,283.005035 264.300171,283.035217 290.463715,283.770538 
	C297.325775,284.472870 304.187805,285.175201 311.925446,286.001312 
	C320.312622,287.158905 328.727966,288.145538 337.078827,289.523254 
	C345.074799,290.842438 353.003784,292.567963 361.352783,294.795258 
	C370.566467,297.141266 379.780151,299.487244 389.681702,302.169861 
	C415.299866,310.862183 440.072174,321.380737 462.862915,336.367584 
	C459.804962,332.068909 456.881195,327.682373 452.909485,324.683899 
	C441.881775,316.358459 430.854828,307.870911 418.990173,300.865692 
	C409.301025,295.144958 398.405914,291.466858 387.693390,286.236023 
	C378.802795,283.241364 369.912201,280.246704 360.226135,277.035828 
	C351.915802,275.049011 343.658081,272.793762 335.280304,271.150818 
	C326.883575,269.504211 318.367035,268.468689 309.399261,267.025146 
	C309.053528,267.054504 308.707825,267.083862 308.017792,266.566711 
	C307.012421,266.431793 306.007080,266.296875 304.129120,266.018097 
	C296.735657,265.402039 289.342194,264.785980 281.090729,264.026093 
	C279.075226,263.979309 277.059692,263.932526 274.662567,263.204773 
	C273.108215,263.192627 271.553894,263.180511 269.072052,263.024475 
	C256.048920,263.072662 243.025818,263.120880 229.261246,263.023926 
	C227.887955,263.408630 226.514664,263.793335 224.329391,264.024780 
	C222.653198,264.073853 220.976990,264.122955 218.625031,264.019775 
	C208.418076,265.068207 198.211121,266.116638 187.354706,267.167328 
	C186.458191,267.443298 185.577316,267.795288 184.662766,267.983704 
	C173.430054,270.298065 162.192413,272.588501 150.135925,274.980682 
	C138.092346,278.712677 126.048752,282.444672 113.320465,286.226135 
	C102.933540,291.143768 92.374985,295.733215 82.199364,301.054901 
	C66.399521,309.317993 52.371479,320.047546 40.315941,333.248535 
	C39.560467,334.075775 39.267326,335.325256 38.244396,337.444733 
	C54.177498,326.597290 69.830811,318.129486 86.591148,311.770264 
	C96.058502,308.178131 105.549370,304.647980 115.827682,301.010773 
	C126.898430,298.047668 137.969177,295.084534 149.880661,292.012970 
	C160.588196,290.287170 171.295731,288.561340 182.809708,286.676910 
M357.977386,300.916779 
	C357.971802,307.330231 357.874390,313.745514 358.004791,320.156219 
	C358.058655,322.803711 358.601349,325.441284 358.709259,328.788818 
	C358.532166,333.583008 353.839233,334.025848 350.480469,335.995911 
	C355.325409,335.995911 359.367645,335.995483 363.409882,335.996033 
	C369.231964,335.996765 375.055054,336.065948 380.875824,335.978455 
	C385.770996,335.904877 389.875366,332.147064 389.967651,327.526306 
	C390.100250,320.887329 390.001495,314.243744 390.001495,307.200928 
	C380.243927,304.464203 370.629669,301.725983 360.975861,299.134979 
	C360.156311,298.915039 359.072906,299.678162 357.977386,300.916779 
M143.004257,313.502686 
	C143.004242,317.490265 142.885300,321.482330 143.035370,325.464264 
	C143.208939,330.069550 142.858795,334.116486 136.927063,334.664246 
	C136.237717,334.727936 135.627121,335.644287 135.190399,335.995911 
	C139.811844,335.995911 144.350113,335.995575 148.888382,335.996002 
	C153.872864,335.996460 158.858566,336.067108 163.841492,335.979401 
	C169.121307,335.886536 173.780930,332.758148 173.883530,328.488434 
	C174.165680,316.747894 173.980957,304.996155 173.980957,292.361237 
	C163.278351,294.429749 153.298019,296.358673 143.004532,298.348145 
	C143.004532,303.247437 143.004532,307.876556 143.004257,313.502686 
M117.402130,332.867676 
	C116.708931,324.033661 116.015724,315.199677 115.276360,305.777313 
	C106.365631,309.131287 97.352074,312.668304 88.223480,315.878113 
	C85.211411,316.937256 84.842949,318.792755 84.973541,321.454407 
	C85.266739,327.430450 86.382690,333.881958 78.153519,335.867401 
	C78.133934,335.872162 78.186951,336.177826 78.223404,336.492798 
	C93.403648,336.492798 108.601608,336.492798 123.799568,336.492798 
	C123.886818,336.148285 123.974068,335.803772 124.061317,335.459229 
	C122.040833,334.789551 120.020348,334.119843 117.402130,332.867676 
z"/>
<path fill="#7ABD53" opacity="1.000000" stroke="none" 
	d="
M188.950165,255.114471 
	C186.835190,252.471039 184.821075,249.738144 182.578018,247.208282 
	C180.134338,244.452148 177.448166,242.167999 173.620239,246.792297 
	C172.721146,248.364395 171.978836,249.473389 172.083176,250.495987 
	C172.538681,254.960327 170.561234,256.307312 166.298065,256.071899 
	C160.848267,255.770950 155.363800,255.848389 149.904861,256.049744 
	C146.285995,256.183258 144.888779,254.897964 144.890305,251.190536 
	C144.891296,248.799667 143.794907,246.408340 143.190323,244.017227 
	C143.143921,241.313690 143.097519,238.610168 143.451599,235.619553 
	C144.192200,235.876389 144.879074,236.461914 144.819534,236.957855 
	C144.110550,242.863922 147.626953,243.287811 152.158722,243.048355 
	C160.671005,242.598587 169.197067,242.276749 177.719849,242.208557 
	C182.751114,242.168304 187.784058,242.876297 192.821487,242.971695 
	C210.214737,243.301102 227.610062,242.757660 245.011551,243.564240 
	C254.589951,244.008209 264.224884,243.232544 273.834320,243.006760 
	C273.834320,248.218994 273.834320,253.431244 273.834320,258.268890 
	C264.083618,258.268890 253.781815,258.268890 243.000900,258.268890 
	C243.000900,254.764877 243.293182,251.953156 242.895950,249.242493 
	C242.640198,247.497360 241.553131,244.668335 240.515854,244.515488 
	C238.799713,244.262558 236.420044,245.347458 235.042145,246.639069 
	C232.373291,249.140808 230.206543,252.178162 227.052567,255.010162 
	C223.181808,255.099991 220.090164,255.237823 216.998672,255.234329 
	C207.649124,255.223801 198.299667,255.158463 188.950165,255.114471 
z"/>
<path fill="#A8CC5E" opacity="1.000000" stroke="none" 
	d="
M143.004395,313.004181 
	C143.004532,307.876556 143.004532,303.247437 143.004532,298.348145 
	C153.298019,296.358673 163.278351,294.429749 173.980957,292.361237 
	C173.980957,304.996155 174.165680,316.747894 173.883530,328.488434 
	C173.780930,332.758148 169.121307,335.886536 163.841492,335.979401 
	C158.858566,336.067108 153.872864,335.996460 148.888382,335.996002 
	C144.350113,335.995575 139.811844,335.995911 135.190399,335.995911 
	C135.627121,335.644287 136.237717,334.727936 136.927063,334.664246 
	C142.858795,334.116486 143.208939,330.069550 143.035370,325.464264 
	C142.885300,321.482330 143.004242,317.490265 143.004395,313.004181 
z"/>
<path fill="#71BA51" opacity="1.000000" stroke="none" 
	d="
M273.903687,242.566467 
	C264.224884,243.232544 254.589951,244.008209 245.011551,243.564240 
	C227.610062,242.757660 210.214737,243.301102 192.821487,242.971695 
	C187.784058,242.876297 182.751114,242.168304 177.719849,242.208557 
	C169.197067,242.276749 160.671005,242.598587 152.158722,243.048355 
	C147.626953,243.287811 144.110550,242.863922 144.819534,236.957855 
	C144.879074,236.461914 144.192200,235.876389 143.517944,235.173706 
	C143.136002,234.441483 143.088211,233.868011 143.511139,232.891327 
	C146.196655,231.992630 148.406555,231.095718 150.627029,231.068741 
	C162.390884,230.925720 174.162277,231.199768 185.920639,230.908432 
	C190.977692,230.783157 196.009583,229.642365 201.052902,228.962936 
	C201.052902,228.962936 200.997375,228.989990 201.105331,229.160522 
	C201.366745,229.583069 201.558731,229.801147 201.789246,229.985306 
	C204.141739,233.543503 206.494217,237.101685 209.250214,240.763794 
	C209.743454,240.912064 209.833191,240.956436 209.922928,241.000793 
	C209.809464,240.830338 209.696014,240.659882 209.582550,240.489426 
	C211.007477,238.200638 212.432388,235.911865 214.363190,233.439590 
	C217.218811,233.837357 219.564499,234.902847 221.918930,234.922485 
	C239.223343,235.066895 256.529480,235.002182 273.835083,235.003342 
	C273.881042,237.377609 273.927032,239.751892 273.903687,242.566467 
z"/>
<path fill="#79BC53" opacity="1.000000" stroke="none" 
	d="
M358.877075,256.041931 
	C358.598541,251.004959 358.319977,245.967987 358.502899,240.380081 
	C363.071960,239.553162 367.187958,239.366608 371.285187,238.980331 
	C377.475311,238.396729 383.652344,237.673843 389.897888,237.456131 
	C389.960815,240.822510 389.960815,243.742889 389.960815,247.245544 
	C391.751099,246.470322 392.953278,246.067520 394.040466,245.459229 
	C399.697418,242.294189 405.325134,239.076797 410.920654,236.228149 
	C409.667969,241.038803 413.265259,240.802841 415.600647,240.866928 
	C423.915222,241.095139 432.240234,240.981201 440.560852,240.930099 
	C442.959625,240.915375 445.356964,240.676437 447.754974,240.540283 
	C444.102448,245.236313 440.449921,249.932343 436.338989,254.515991 
	C435.629761,254.596359 435.378937,254.789139 435.128082,254.981903 
	C435.128082,254.981903 435.000732,255.398926 434.361664,255.287262 
	C410.739105,255.118927 387.755646,255.046631 364.772156,255.048019 
	C363.513519,255.048096 362.254944,255.662048 360.643066,255.995392 
	C359.818878,256.014343 359.347992,256.028137 358.877075,256.041931 
M360.617188,252.089981 
	C360.617188,252.089981 360.449921,251.850449 360.449921,251.850449 
	C360.449921,251.850449 360.470825,252.161530 360.617188,252.089981 
z"/>
<path fill="#F7CF37" opacity="1.000000" stroke="none" 
	d="
M289.986908,283.065430 
	C264.300171,283.035217 238.613449,283.005035 212.566437,282.588623 
	C214.672302,278.766663 216.737869,274.922607 219.712173,272.004913 
	C222.981125,268.798157 223.240311,266.595459 219.300797,264.172028 
	C220.976990,264.122955 222.653198,264.073853 225.126801,264.275635 
	C227.283707,264.074036 228.643204,263.621552 230.002701,263.169067 
	C243.025818,263.120880 256.048920,263.072662 269.665649,263.407715 
	C271.854218,263.822571 273.449188,263.854156 275.044189,263.885742 
	C277.059692,263.932526 279.075226,263.979309 281.175781,264.401154 
	C279.317627,265.494995 277.374359,266.213776 274.579651,267.247498 
	C279.978516,272.790253 284.982697,277.927856 289.986908,283.065430 
z"/>
<path fill="#A8CC5E" opacity="1.000000" stroke="none" 
	d="
M358.112091,299.984589 
	C359.072906,299.678162 360.156311,298.915039 360.975861,299.134979 
	C370.629669,301.725983 380.243927,304.464203 390.001495,307.200928 
	C390.001495,314.243744 390.100250,320.887329 389.967651,327.526306 
	C389.875366,332.147064 385.770996,335.904877 380.875824,335.978455 
	C375.055054,336.065948 369.231964,335.996765 363.409882,335.996033 
	C359.367645,335.995483 355.325409,335.995911 350.480469,335.995911 
	C353.839233,334.025848 358.532166,333.583008 358.870361,327.965729 
	C359.049957,322.654144 359.202545,318.161072 359.049530,313.678436 
	C358.893524,309.108490 358.437012,304.548767 358.112091,299.984589 
z"/>
<path fill="#A8CC5E" opacity="1.000000" stroke="none" 
	d="
M331.836731,304.569031 
	C331.891144,310.551422 331.975616,316.533691 331.992950,322.516205 
	C332.019196,331.574036 331.999359,331.574097 340.428925,336.486206 
	C324.248657,336.486206 308.696289,336.486206 292.249695,336.486206 
	C293.449738,335.639221 293.973389,334.966064 294.566620,334.897858 
	C300.471588,334.218872 301.173767,330.347595 301.077454,325.362000 
	C300.862305,314.226227 301.037262,303.082886 301.463745,291.647339 
	C302.254639,294.535095 302.799896,297.709717 302.963043,300.903839 
	C303.091705,303.422394 303.712433,305.048065 306.609558,304.988983 
	C315.018005,304.817505 323.427582,304.704803 331.836731,304.569031 
z"/>
<path fill="#A8CC5E" opacity="1.000000" stroke="none" 
	d="
M273.831146,303.577545 
	C273.887299,310.395844 274.037048,317.215057 273.968689,324.032104 
	C273.917877,329.094086 273.815460,334.001587 280.529144,334.946136 
	C281.043304,335.018494 281.502045,335.484802 282.376404,335.995911 
	C276.035309,335.995911 270.280487,335.995483 264.525665,335.996063 
	C260.698761,335.996460 256.869385,336.086487 253.045517,335.979828 
	C246.552795,335.798767 243.014023,332.200684 243.010040,325.849640 
	C243.002731,314.202667 243.037018,302.555664 243.321411,290.269531 
	C243.719879,289.530029 243.839096,289.404175 243.985260,289.336548 
	C244.130432,289.269348 244.302704,289.260681 244.463089,289.226349 
	C244.647964,292.783844 244.930481,296.339874 244.984619,299.899353 
	C245.023026,302.425598 245.708160,304.048065 248.607254,303.989868 
	C257.014587,303.820953 265.423096,303.710785 273.831146,303.577545 
z"/>
<path fill="#4DB34D" opacity="1.000000" stroke="none" 
	d="
M449.832062,197.006363 
	C449.877289,200.413406 449.922546,203.820465 449.442291,207.613968 
	C436.267975,207.333450 423.618744,206.136078 410.970428,206.145874 
	C397.823639,206.156052 384.676483,207.308533 371.532318,208.014587 
	C367.433655,208.234726 363.344299,208.627472 359.202637,208.486969 
	C359.193054,204.364960 359.231506,200.697174 359.721619,197.021454 
	C390.059540,197.011124 419.945801,197.008743 449.832062,197.006363 
z"/>
<path fill="#F9BB3A" opacity="1.000000" stroke="none" 
	d="
M305.001709,266.161957 
	C306.007080,266.296875 307.012421,266.431793 308.251526,267.106232 
	C308.957825,267.485596 309.430389,267.325470 309.902985,267.165344 
	C318.367035,268.468689 326.883575,269.504211 335.280304,271.150818 
	C343.658081,272.793762 351.915802,275.049011 360.488892,277.448486 
	C357.397308,279.956543 356.267242,282.758453 357.892090,286.525360 
	C358.972687,289.030487 359.942688,291.583374 360.962189,294.114868 
	C353.003784,292.567963 345.074799,290.842438 337.078827,289.523254 
	C328.727966,288.145538 320.312622,287.158905 311.448853,285.583984 
	C310.525604,284.312622 309.995270,283.491364 309.645996,282.599213 
	C307.561188,277.273834 303.004639,272.639923 305.001709,266.161957 
z"/>
<path fill="#43B14C" opacity="1.000000" stroke="none" 
	d="
M449.889893,196.625061 
	C419.945801,197.008743 390.059540,197.011124 359.654785,196.567444 
	C358.734924,185.096313 359.148254,187.064835 368.129822,187.028778 
	C389.764282,186.941895 411.400208,187.095749 433.033417,186.908981 
	C436.730286,186.877075 440.416809,185.640198 444.108093,184.959991 
	C446.054657,188.721237 448.001190,192.482513 449.889893,196.625061 
z"/>
<path fill="#84BF54" opacity="1.000000" stroke="none" 
	d="
M360.996338,255.990234 
	C362.254944,255.662048 363.513519,255.048096 364.772156,255.048019 
	C387.755646,255.046631 410.739105,255.118927 434.247681,255.305252 
	C427.169403,259.960480 419.566284,264.486420 411.962189,269.010620 
	C411.544495,269.259125 411.118195,269.493103 410.216064,269.478760 
	C409.326752,268.986328 408.915009,268.538055 408.508148,268.542480 
	C397.061615,268.666595 385.616089,268.908630 374.169403,268.979797 
	C361.012451,269.061584 361.012054,268.998779 360.996338,255.990234 
z"/>
<path fill="#FAA33B" opacity="1.000000" stroke="none" 
	d="
M115.029663,301.089935 
	C105.549370,304.647980 96.058502,308.178131 86.591148,311.770264 
	C69.830811,318.129486 54.177498,326.597290 38.244396,337.444733 
	C39.267326,335.325256 39.560467,334.075775 40.315941,333.248535 
	C52.371479,320.047546 66.399521,309.317993 82.199364,301.054901 
	C92.374985,295.733215 102.933540,291.143768 113.780548,286.492462 
	C119.686279,287.801239 121.627777,290.721924 119.496284,295.451782 
	C118.540977,297.571625 116.550438,299.224945 115.029663,301.089935 
z"/>
<path fill="#33AF4B" opacity="1.000000" stroke="none" 
	d="
M443.953735,184.650543 
	C440.416809,185.640198 436.730286,186.877075 433.033417,186.908981 
	C411.400208,187.095749 389.764282,186.941895 368.129822,187.028778 
	C359.148254,187.064835 358.734924,185.096313 359.203125,196.575378 
	C359.231506,200.697174 359.193054,204.364960 359.154358,208.955536 
	C359.186096,214.219467 359.218079,218.560623 359.180603,223.218170 
	C358.789276,224.080795 358.467438,224.627014 358.145630,225.173218 
	C358.075836,212.685486 357.881561,200.196579 357.997406,187.710571 
	C358.043976,182.688980 358.360107,177.958954 351.180023,177.492813 
	C352.298187,177.332794 353.416168,177.034576 354.534546,177.033142 
	C378.020691,177.003235 401.508240,176.865768 424.992249,177.090500 
	C431.975616,177.157318 438.677032,178.956970 443.953735,184.650543 
z"/>
<path fill="#FAA33B" opacity="1.000000" stroke="none" 
	d="
M388.045502,286.883087 
	C398.405914,291.466858 409.301025,295.144958 418.990173,300.865692 
	C430.854828,307.870911 441.881775,316.358459 452.909485,324.683899 
	C456.881195,327.682373 459.804962,332.068909 462.862915,336.367584 
	C440.072174,321.380737 415.299866,310.862183 389.228882,301.682892 
	C381.458862,295.586426 380.891235,288.742340 388.045502,286.883087 
z"/>
<path fill="#A8CC5E" opacity="1.000000" stroke="none" 
	d="
M117.700996,333.158905 
	C120.020348,334.119843 122.040833,334.789551 124.061317,335.459229 
	C123.974068,335.803772 123.886818,336.148285 123.799568,336.492798 
	C108.601608,336.492798 93.403648,336.492798 78.223404,336.492798 
	C78.186951,336.177826 78.133934,335.872162 78.153519,335.867401 
	C86.382690,333.881958 85.266739,327.430450 84.973541,321.454407 
	C84.842949,318.792755 85.211411,316.937256 88.223480,315.878113 
	C97.352074,312.668304 106.365631,309.131287 115.276360,305.777313 
	C116.015724,315.199677 116.708931,324.033661 117.700996,333.158905 
z"/>
<path fill="#5AB64F" opacity="1.000000" stroke="none" 
	d="
M359.250061,222.901764 
	C359.218079,218.560623 359.186096,214.219467 359.202393,209.409760 
	C363.344299,208.627472 367.433655,208.234726 371.532318,208.014587 
	C384.676483,207.308533 397.823639,206.156052 410.970428,206.145874 
	C423.618744,206.136078 436.267975,207.333450 449.374451,208.003387 
	C449.867889,208.745056 449.903687,209.483765 449.502228,210.745148 
	C447.980652,215.195084 445.472961,216.306747 441.432648,216.106049 
	C434.028412,215.738251 426.592773,216.002869 419.103455,215.629929 
	C419.083252,214.500870 419.129822,213.745697 419.419434,212.912415 
	C419.411377,212.235733 419.160278,211.637146 418.589233,210.838699 
	C416.514893,209.763397 414.815063,208.300980 412.995026,208.131836 
	C408.905396,207.751755 404.755463,208.062347 400.631256,208.004532 
	C388.594696,207.835815 389.721191,209.292892 389.979340,218.541016 
	C389.992981,219.030380 389.881561,219.523224 389.418823,220.041641 
	C381.047272,220.380157 373.078583,220.583191 365.128082,221.078949 
	C363.138611,221.203003 361.207825,222.268814 359.250061,222.901764 
z"/>
<path fill="#62B74F" opacity="1.000000" stroke="none" 
	d="
M273.834381,213.011169 
	C273.878693,217.005051 273.923004,220.998947 273.446228,225.541122 
	C270.632660,226.392868 268.341675,226.944778 266.047394,226.958893 
	C252.549667,227.041977 239.050827,227.048798 225.553238,226.955017 
	C223.090225,226.937927 220.631256,226.338440 218.170410,226.007782 
	C221.063751,221.549866 223.957108,217.091949 227.375336,212.412201 
	C230.433502,212.793442 232.951462,213.825394 235.503036,213.916595 
	C242.318771,214.160248 249.152054,214.127457 255.972443,213.961472 
	C261.930573,213.816483 267.880707,213.340775 273.834381,213.011169 
z"/>
<path fill="#F9BB3A" opacity="1.000000" stroke="none" 
	d="
M150.956039,274.885101 
	C162.192413,272.588501 173.430054,270.298065 184.662766,267.983704 
	C185.577316,267.795288 186.458191,267.443298 187.678223,267.589233 
	C187.592743,270.744568 187.557007,273.604248 186.685287,276.181122 
	C185.447006,279.841644 183.593735,283.294128 182.003265,286.835541 
	C171.295731,288.561340 160.588196,290.287170 149.512726,291.693115 
	C151.879913,286.111359 153.069702,280.679688 150.956039,274.885101 
z"/>
<path fill="#53B44E" opacity="1.000000" stroke="none" 
	d="
M273.903564,212.551697 
	C267.880707,213.340775 261.930573,213.816483 255.972443,213.961472 
	C249.152054,214.127457 242.318771,214.160248 235.503036,213.916595 
	C232.951462,213.825394 230.433502,212.793442 227.535553,212.102020 
	C229.880600,207.442062 232.590317,202.870468 235.898987,198.370621 
	C238.504395,198.961472 240.504654,199.899567 242.518326,199.929352 
	C252.956253,200.083664 263.397614,200.006012 273.837769,200.009186 
	C273.882782,204.036865 273.927765,208.064545 273.903564,212.551697 
z"/>
<path fill="#F7C638" opacity="1.000000" stroke="none" 
	d="
M182.406479,286.756226 
	C183.593735,283.294128 185.447006,279.841644 186.685287,276.181122 
	C187.557007,273.604248 187.592743,270.744568 188.002960,267.588135 
	C198.211121,266.116638 208.418076,265.068207 218.962921,264.095886 
	C223.240311,266.595459 222.981125,268.798157 219.712173,272.004913 
	C216.737869,274.922607 214.672302,278.766663 212.104385,282.516235 
	C206.575317,283.553833 201.148773,284.283356 195.720474,284.999573 
	C191.418015,285.567169 187.113373,286.118408 182.406479,286.756226 
z"/>
<path fill="#68B850" opacity="1.000000" stroke="none" 
	d="
M331.833801,217.595352 
	C331.881805,223.815216 331.929810,230.035095 331.485077,236.630707 
	C324.241333,237.337616 317.484924,237.586639 310.741211,238.028961 
	C306.291168,238.320862 302.387360,238.196320 302.503540,232.147461 
	C302.512543,231.678375 301.673096,231.193008 301.227997,230.715195 
	C301.168213,226.618652 301.108459,222.522095 301.631134,218.095505 
	C312.087006,217.708755 321.960388,217.652054 331.833801,217.595352 
z"/>
<path fill="#6CB951" opacity="1.000000" stroke="none" 
	d="
M359.180603,223.218170 
	C361.207825,222.268814 363.138611,221.203003 365.128082,221.078949 
	C373.078583,220.583191 381.047272,220.380157 389.481628,220.504395 
	C389.914337,226.296707 389.874634,231.653427 389.834900,237.010162 
	C383.652344,237.673843 377.475311,238.396729 371.285187,238.980331 
	C367.187958,239.366608 363.071960,239.553162 358.566925,239.918243 
	C358.125610,235.359589 358.081726,230.711853 358.091736,225.618668 
	C358.467438,224.627014 358.789276,224.080795 359.180603,223.218170 
z"/>
<path fill="#F9AE3B" opacity="1.000000" stroke="none" 
	d="
M150.545990,274.932892 
	C153.069702,280.679688 151.879913,286.111359 149.092346,291.747375 
	C137.969177,295.084534 126.898430,298.047668 115.428680,301.050354 
	C116.550438,299.224945 118.540977,297.571625 119.496284,295.451782 
	C121.627777,290.721924 119.686279,287.801239 114.122894,286.467743 
	C126.048752,282.444672 138.092346,278.712677 150.545990,274.932892 
z"/>
<path fill="#6CB951" opacity="1.000000" stroke="none" 
	d="
M447.885803,240.205750 
	C445.356964,240.676437 442.959625,240.915375 440.560852,240.930099 
	C432.240234,240.981201 423.915222,241.095139 415.600647,240.866928 
	C413.265259,240.802841 409.667969,241.038803 411.056335,235.926575 
	C413.878540,231.852158 416.522675,228.429855 419.565460,225.092407 
	C429.919800,225.454086 439.875519,225.730911 449.831207,226.007721 
	C449.226349,230.628891 448.621490,235.250046 447.885803,240.205750 
z"/>
<path fill="#62B74F" opacity="1.000000" stroke="none" 
	d="
M115.829582,212.620041 
	C115.877655,218.149109 115.925735,223.678192 115.446053,229.603607 
	C105.003006,230.002594 95.087723,230.005219 85.172440,230.007843 
	C85.129601,224.651199 85.086761,219.294556 85.564026,213.472168 
	C95.999275,212.877655 105.914429,212.748840 115.829582,212.620041 
z"/>
<path fill="#68B850" opacity="1.000000" stroke="none" 
	d="
M200.922241,228.646240 
	C196.009583,229.642365 190.977692,230.783157 185.920639,230.908432 
	C174.162277,231.199768 162.390884,230.925720 150.627029,231.068741 
	C148.406555,231.095718 146.196655,231.992630 143.575531,232.608887 
	C143.126984,231.456650 143.084778,230.183640 143.389175,228.388123 
	C143.551880,227.320435 143.367996,226.775269 143.184113,226.230103 
	C143.146942,223.133362 143.109787,220.036606 143.548309,217.016510 
	C144.844833,221.011322 147.174942,222.227112 151.184448,222.097214 
	C160.507736,221.795151 169.849655,222.122742 179.179733,221.955780 
	C184.810394,221.855026 190.433060,221.305786 196.059311,220.958069 
	C196.059311,220.958069 196.000702,220.987808 196.110474,221.155457 
	C196.374908,221.575027 196.567261,221.793869 196.797256,221.979630 
	C198.128693,224.096268 199.460129,226.212891 200.922241,228.646240 
z"/>
<path fill="#79BC53" opacity="1.000000" stroke="none" 
	d="
M301.150482,231.145401 
	C301.673096,231.193008 302.512543,231.678375 302.503540,232.147461 
	C302.387360,238.196320 306.291168,238.320862 310.741211,238.028961 
	C317.484924,237.586639 324.241333,237.337616 331.414368,237.008804 
	C331.881836,242.346161 331.927277,247.681183 331.417603,253.470978 
	C324.070343,254.283859 317.281830,254.796539 310.484985,254.958344 
	C303.059235,255.135117 303.176178,254.989319 302.918121,247.739960 
	C302.849609,245.815659 301.794006,243.926483 301.191620,242.021179 
	C301.152069,238.539322 301.112518,235.057465 301.150482,231.145401 
z"/>
<path fill="#F7C638" opacity="1.000000" stroke="none" 
	d="
M304.565430,266.090027 
	C303.004639,272.639923 307.561188,277.273834 309.645996,282.599213 
	C309.995270,283.491364 310.525604,284.312622 311.011047,285.522095 
	C304.187805,285.175201 297.325775,284.472870 290.225311,283.417969 
	C284.982697,277.927856 279.978516,272.790253 274.579651,267.247498 
	C277.374359,266.213776 279.317627,265.494995 281.604797,264.473083 
	C289.342194,264.785980 296.735657,265.402039 304.565430,266.090027 
z"/>
<path fill="#6CB951" opacity="1.000000" stroke="none" 
	d="
M218.018066,226.319458 
	C220.631256,226.338440 223.090225,226.937927 225.553238,226.955017 
	C239.050827,227.048798 252.549667,227.041977 266.047394,226.958893 
	C268.341675,226.944778 270.632660,226.392868 273.378052,225.937378 
	C273.877075,228.623001 273.923218,231.460678 273.902222,234.650848 
	C256.529480,235.002182 239.223343,235.066895 221.918930,234.922485 
	C219.564499,234.902847 217.218811,233.837357 214.519714,233.131683 
	C215.402130,230.881866 216.633926,228.756485 218.018066,226.319458 
z"/>
<path fill="#89C155" opacity="1.000000" stroke="none" 
	d="
M85.178925,276.015900 
	C85.131546,270.655609 85.084160,265.295319 85.517097,259.477417 
	C95.334991,259.351410 104.672554,259.683044 114.012985,260.480286 
	C114.012817,263.927521 113.762039,266.934418 114.063141,269.885010 
	C114.550125,274.657166 112.742867,276.324799 107.915886,276.101746 
	C100.351738,275.752167 92.759354,276.013367 85.178925,276.015900 
z"/>
<path fill="#71BA51" opacity="1.000000" stroke="none" 
	d="
M85.108780,230.471191 
	C95.087723,230.005219 105.003006,230.002594 115.376083,230.003601 
	C115.879547,234.679123 115.925209,239.351013 115.376251,244.472443 
	C107.544403,244.947601 100.300262,244.800217 93.073578,245.089386 
	C90.416634,245.195694 87.800964,246.333786 85.166473,247.001251 
	C85.126022,241.645691 85.085571,236.290131 85.108780,230.471191 
z"/>
<path fill="#9CC75A" opacity="1.000000" stroke="none" 
	d="
M273.905640,303.144653 
	C265.423096,303.710785 257.014587,303.820953 248.607254,303.989868 
	C245.708160,304.048065 245.023026,302.425598 244.984619,299.899353 
	C244.930481,296.339874 244.647964,292.783844 244.463089,289.226349 
	C244.302704,289.260681 244.130432,289.269348 243.985260,289.336548 
	C243.839096,289.404175 243.719879,289.530029 243.390549,289.803986 
	C243.778885,288.971771 244.314423,287.135254 244.960495,287.095551 
	C249.024078,286.845551 253.112228,286.995148 257.774658,287.445190 
	C263.507111,288.208191 268.657196,288.538635 273.807251,288.869110 
	C273.864868,293.483307 273.922485,298.097534 273.905640,303.144653 
z"/>
<path fill="#43B14C" opacity="1.000000" stroke="none" 
	d="
M301.173523,202.900543 
	C301.131012,197.905991 301.088470,192.911453 301.505615,187.546768 
	C311.921448,187.120895 321.877655,187.065140 331.833862,187.009399 
	C331.877350,191.701416 331.920837,196.393448 331.422485,201.547256 
	C320.978241,202.306213 311.075897,202.603378 301.173523,202.900543 
z"/>
<path fill="#43B14C" opacity="1.000000" stroke="none" 
	d="
M273.905090,199.549622 
	C263.397614,200.006012 252.956253,200.083664 242.518326,199.929352 
	C240.504654,199.899567 238.504395,198.961472 236.193146,198.191208 
	C235.930420,197.777832 235.972473,197.615631 236.266449,197.068588 
	C236.709366,196.455215 236.852829,196.199982 236.948761,195.918030 
	C238.726944,193.035187 240.505112,190.152344 243.062103,187.122681 
	C253.840897,186.986771 263.840881,186.997635 273.840851,187.008514 
	C273.884705,191.035690 273.928589,195.062881 273.905090,199.549622 
z"/>
<path fill="#53B44E" opacity="1.000000" stroke="none" 
	d="
M301.109344,203.290497 
	C311.075897,202.603378 320.978241,202.306213 331.355713,201.946594 
	C331.877075,206.864700 331.923309,211.845230 331.901672,217.210571 
	C321.960388,217.652054 312.087006,217.708755 301.692413,217.679871 
	C301.129211,212.956329 301.087189,208.318405 301.109344,203.290497 
z"/>
<path fill="#7ABD53" opacity="1.000000" stroke="none" 
	d="
M85.100990,247.458160 
	C87.800964,246.333786 90.416634,245.195694 93.073578,245.089386 
	C100.300262,244.800217 107.544403,244.947601 115.308014,244.907715 
	C115.876404,247.256851 115.918411,249.620224 115.521187,252.610840 
	C114.726212,255.495361 114.370476,257.752625 114.009064,260.006287 
	C114.003380,260.002625 114.010124,260.014648 114.010124,260.014648 
	C104.672554,259.683044 95.334991,259.351410 85.581192,259.014191 
	C85.121811,255.310760 85.078659,251.612900 85.100990,247.458160 
z"/>
<path fill="#F9AE3B" opacity="1.000000" stroke="none" 
	d="
M387.869446,286.559570 
	C380.891235,288.742340 381.458862,295.586426 388.884949,301.514587 
	C379.780151,299.487244 370.566467,297.141266 361.157471,294.455078 
	C359.942688,291.583374 358.972687,289.030487 357.892090,286.525360 
	C356.267242,282.758453 357.397308,279.956543 360.886597,277.556580 
	C369.912201,280.246704 378.802795,283.241364 387.869446,286.559570 
z"/>
<path fill="#53B44E" opacity="1.000000" stroke="none" 
	d="
M115.895859,212.229309 
	C105.914429,212.748840 95.999275,212.877655 85.626549,213.008972 
	C85.129059,208.651840 85.089142,204.292175 85.568253,199.469849 
	C96.000053,198.880951 105.912819,198.754715 115.825584,198.628464 
	C115.871101,203.031845 115.916626,207.435211 115.895859,212.229309 
z"/>
<path fill="#89C155" opacity="1.000000" stroke="none" 
	d="
M360.643066,255.995392 
	C361.012054,268.998779 361.012451,269.061584 374.169403,268.979797 
	C385.616089,268.908630 397.061615,268.666595 408.508148,268.542480 
	C408.915009,268.538055 409.326752,268.986328 409.866730,269.525787 
	C404.551392,273.832245 399.145752,277.893829 393.614838,281.776978 
	C392.815918,282.337891 391.304443,282.396881 390.310120,282.086945 
	C380.732758,279.101196 371.160492,276.087036 361.690521,272.783661 
	C360.481964,272.362030 359.224915,270.296234 359.099457,268.893005 
	C358.746552,264.945129 358.972534,260.945496 358.923645,256.504089 
	C359.347992,256.028137 359.818878,256.014343 360.643066,255.995392 
z"/>
<path fill="#43B14C" opacity="1.000000" stroke="none" 
	d="
M143.167007,198.004333 
	C143.126724,194.641876 143.086426,191.279404 143.564621,187.459839 
	C154.092804,186.986832 164.102493,186.970947 174.112183,186.955048 
	C176.408722,190.386795 178.705276,193.818542 180.614410,197.614075 
	C167.873688,197.986679 155.520340,197.995499 143.167007,198.004333 
z"/>
<path fill="#84BF54" opacity="1.000000" stroke="none" 
	d="
M143.122803,244.480103 
	C143.794907,246.408340 144.891296,248.799667 144.890305,251.190536 
	C144.888779,254.897964 146.285995,256.183258 149.904861,256.049744 
	C155.363800,255.848389 160.848267,255.770950 166.298065,256.071899 
	C170.561234,256.307312 172.538681,254.960327 172.083176,250.495987 
	C171.978836,249.473389 172.721146,248.364395 173.433273,247.016632 
	C173.792755,252.529434 173.792755,258.320770 173.792755,264.691742 
	C163.798599,266.966736 153.617081,269.284393 143.055283,271.688599 
	C143.055283,262.751190 143.055283,253.847076 143.122803,244.480103 
z"/>
<path fill="#43B14C" opacity="1.000000" stroke="none" 
	d="
M115.889557,198.237274 
	C105.912819,198.754715 96.000053,198.880951 85.630035,199.009460 
	C85.131317,194.984665 85.089859,190.957596 85.567398,186.469147 
	C96.001099,186.009430 105.915794,186.011093 115.830498,186.012756 
	C115.871513,189.957199 115.912521,193.901627 115.889557,198.237274 
z"/>
<path fill="#9CC75A" opacity="1.000000" stroke="none" 
	d="
M331.910828,304.142792 
	C323.427582,304.704803 315.018005,304.817505 306.609558,304.988983 
	C303.712433,305.048065 303.091705,303.422394 302.963043,300.903839 
	C302.799896,297.709717 302.254639,294.535095 301.532196,291.184204 
	C302.136719,290.340881 303.183441,288.975128 304.014313,289.095795 
	C313.312836,290.446014 322.578094,292.025391 331.522217,293.860687 
	C330.669678,294.225067 330.147156,294.271820 329.624664,294.318573 
	C329.631958,294.475403 329.639252,294.632202 329.646515,294.789032 
	C330.370850,294.789032 331.095184,294.789032 331.819519,294.789032 
	C331.874664,297.764862 331.929779,300.740723 331.910828,304.142792 
z"/>
<path fill="#4DB34D" opacity="1.000000" stroke="none" 
	d="
M143.104446,198.418152 
	C155.520340,197.995499 167.873688,197.986679 180.673355,197.968475 
	C182.756989,200.707458 184.394302,203.455841 185.682816,206.741638 
	C183.709641,207.518799 182.085648,207.962738 180.460831,207.965820 
	C168.031891,207.989410 155.602798,207.927155 143.173752,207.891602 
	C143.129807,204.871719 143.085846,201.851852 143.104446,198.418152 
z"/>
<path fill="#33AF4B" opacity="1.000000" stroke="none" 
	d="
M331.898956,186.607361 
	C321.877655,187.065140 311.921448,187.120895 301.567291,187.092224 
	C301.387726,181.529922 298.356445,178.812134 293.332123,177.393402 
	C308.736420,177.393402 324.140686,177.393402 339.544952,177.393402 
	C335.766327,179.351456 331.105286,180.353088 331.898956,186.607361 
z"/>
<path fill="#9CC75A" opacity="1.000000" stroke="none" 
	d="
M85.114662,276.478729 
	C92.759354,276.013367 100.351738,275.752167 107.915886,276.101746 
	C112.742867,276.324799 114.550125,274.657166 114.063141,269.885010 
	C113.762039,266.934418 114.012817,263.927521 114.012985,260.480286 
	C114.010124,260.014648 114.003380,260.002625 114.305634,260.010376 
	C115.003731,260.023834 115.399559,260.029510 115.795395,260.035187 
	C115.854996,265.174103 115.635544,270.336487 116.065109,275.444275 
	C116.391228,279.321991 114.630890,280.976196 111.385773,282.299103 
	C102.696930,285.841095 94.103447,289.617004 85.050392,293.479950 
	C85.050392,287.979034 85.050392,282.460297 85.114662,276.478729 
z"/>
<path fill="#62B74F" opacity="1.000000" stroke="none" 
	d="
M195.926605,220.639999 
	C190.433060,221.305786 184.810394,221.855026 179.179733,221.955780 
	C169.849655,222.122742 160.507736,221.795151 151.184448,222.097214 
	C147.174942,222.227112 144.844833,221.011322 143.643707,216.584229 
	C143.193542,215.856567 143.109894,215.640915 143.059555,215.417755 
	C143.034073,215.304855 143.068771,215.178375 143.757874,214.984467 
	C157.236542,214.941177 170.035110,215.083466 182.829437,214.910568 
	C185.503159,214.874435 188.161163,213.674988 190.826401,213.011627 
	C192.482239,215.448395 194.138062,217.885162 195.926605,220.639999 
z"/>
<path fill="#33AF4B" opacity="1.000000" stroke="none" 
	d="
M115.913315,185.641357 
	C105.915794,186.011093 96.001099,186.009430 85.629150,186.010254 
	C85.485237,181.133469 82.846252,178.848373 78.318405,177.610565 
	C93.426956,177.610565 108.535507,177.610565 123.644058,177.610565 
	C119.219284,178.457596 116.747398,180.954636 115.913315,185.641357 
z"/>
<path fill="#5AB64F" opacity="1.000000" stroke="none" 
	d="
M190.788635,212.682953 
	C188.161163,213.674988 185.503159,214.874435 182.829437,214.910568 
	C170.035110,215.083466 157.236542,214.941177 143.824310,214.794434 
	C143.155075,212.632065 143.100998,210.586166 143.110321,208.215927 
	C155.602798,207.927155 168.031891,207.989410 180.460831,207.965820 
	C182.085648,207.962738 183.709641,207.518799 185.725098,207.111450 
	C187.661072,208.747299 189.205963,210.550781 190.788635,212.682953 
z"/>
<path fill="#33AF4B" opacity="1.000000" stroke="none" 
	d="
M174.054382,186.603485 
	C164.102493,186.970947 154.092804,186.986832 143.625610,187.005554 
	C143.072647,181.864288 140.986435,178.505188 135.196579,177.707031 
	C136.094009,177.475266 136.989655,177.050995 137.889175,177.042557 
	C144.351669,176.981873 150.838516,177.351852 157.271927,176.913742 
	C165.077072,176.382233 170.730728,178.998779 174.054382,186.603485 
z"/>
<path fill="#33AF4B" opacity="1.000000" stroke="none" 
	d="
M273.909241,186.622437 
	C263.840881,186.997635 253.840897,186.986771 243.364975,186.965881 
	C245.579742,180.091736 250.387421,176.629364 257.981079,176.947372 
	C264.421021,177.217087 270.881226,176.987778 277.332275,177.019226 
	C278.819183,177.026459 280.305298,177.196762 281.981171,177.898865 
	C276.703796,178.496979 274.304169,181.389450 273.909241,186.622437 
z"/>
<path fill="#62B74F" opacity="1.000000" stroke="none" 
	d="
M449.899231,225.633163 
	C439.875519,225.730911 429.919800,225.454086 419.496826,224.646149 
	C419.076447,221.411285 419.123322,218.707550 419.170227,216.003799 
	C426.592773,216.002869 434.028412,215.738251 441.432648,216.106049 
	C445.472961,216.306747 447.980652,215.195084 449.413208,211.009521 
	C449.822144,212.464890 449.882782,214.178589 449.538696,216.547150 
	C449.364014,219.130768 449.594025,221.059540 449.824036,222.988297 
	C449.871796,223.745071 449.919525,224.501831 449.899231,225.633163 
z"/>
<path fill="#84BF54" opacity="1.000000" stroke="none" 
	d="
M301.124390,242.483459 
	C301.794006,243.926483 302.849609,245.815659 302.918121,247.739960 
	C303.176178,254.989319 303.059235,255.135117 310.484985,254.958344 
	C317.281830,254.796539 324.070343,254.283859 331.346832,253.906616 
	C331.831146,257.838715 331.831146,261.789978 331.831146,265.649536 
	C321.426514,263.991211 311.336060,262.382965 301.057159,260.744690 
	C301.057159,254.564072 301.057159,248.754913 301.124390,242.483459 
z"/>
<path fill="#84BF54" opacity="1.000000" stroke="none" 
	d="
M189.093094,255.425522 
	C198.299667,255.158463 207.649124,255.223801 216.998672,255.234329 
	C220.090164,255.237823 223.181808,255.099991 226.702576,255.036346 
	C226.741730,258.249878 224.883789,258.901764 221.789825,259.115540 
	C213.390442,259.695923 205.037598,261.359833 196.651657,261.468811 
	C194.205032,261.500610 191.709274,257.752228 189.093094,255.425522 
z"/>
<path fill="#F7CF37" opacity="1.000000" stroke="none" 
	d="
M358.044739,300.450684 
	C358.437012,304.548767 358.893524,309.108490 359.049530,313.678436 
	C359.202545,318.161072 359.049957,322.654144 358.976624,327.613007 
	C358.601349,325.441284 358.058655,322.803711 358.004791,320.156219 
	C357.874390,313.745514 357.971802,307.330231 358.044739,300.450684 
z"/>
<path fill="#A8CC5E" opacity="1.000000" stroke="none" 
	d="
M273.863007,288.672791 
	C268.657196,288.538635 263.507111,288.208191 258.187256,287.536133 
	C262.058624,287.149597 266.099792,287.104675 270.897400,287.322937 
	C272.371002,287.752197 273.088196,287.918304 273.805359,288.084442 
	C273.805359,288.084442 273.918762,288.476501 273.863007,288.672791 
z"/>
<path fill="#6CB951" opacity="1.000000" stroke="none" 
	d="
M449.887146,222.596893 
	C449.594025,221.059540 449.364014,219.130768 449.466034,216.965408 
	C449.848785,218.554367 449.899506,220.379944 449.887146,222.596893 
z"/>
<path fill="#89C155" opacity="1.000000" stroke="none" 
	d="
M115.874283,259.631531 
	C115.399559,260.029510 115.003731,260.023834 114.311317,260.014038 
	C114.370476,257.752625 114.726212,255.495361 115.435944,252.962341 
	C115.844345,254.867020 115.898758,257.047455 115.874283,259.631531 
z"/>
<path fill="#F7C638" opacity="1.000000" stroke="none" 
	d="
M274.853394,263.545258 
	C273.449188,263.854156 271.854218,263.822571 270.129395,263.479675 
	C271.553894,263.180511 273.108215,263.192627 274.853394,263.545258 
z"/>
<path fill="#F7C638" opacity="1.000000" stroke="none" 
	d="
M229.631973,263.096497 
	C228.643204,263.621552 227.283707,264.074036 225.532806,264.352264 
	C226.514664,263.793335 227.887955,263.408630 229.631973,263.096497 
z"/>
<path fill="#9CC75A" opacity="1.000000" stroke="none" 
	d="
M273.832672,287.786133 
	C273.088196,287.918304 272.371002,287.752197 271.339050,287.390778 
	C271.969513,287.292908 272.914734,287.390381 273.832672,287.786133 
z"/>
<path fill="#A8CC5E" opacity="1.000000" stroke="none" 
	d="
M331.874329,294.658661 
	C331.095184,294.789032 330.370850,294.789032 329.646515,294.789032 
	C329.639252,294.632202 329.631958,294.475403 329.624664,294.318573 
	C330.147156,294.271820 330.669678,294.225067 331.505463,294.223083 
	C331.818756,294.267853 331.929169,294.528290 331.874329,294.658661 
z"/>
<path fill="#F7C638" opacity="1.000000" stroke="none" 
	d="
M309.651123,267.095245 
	C309.430389,267.325470 308.957825,267.485596 308.423645,267.379517 
	C308.707825,267.083862 309.053528,267.054504 309.651123,267.095245 
z"/>
<path fill="#71BA51" opacity="1.000000" stroke="none" 
	d="
M143.123199,226.549683 
	C143.367996,226.775269 143.551880,227.320435 143.464905,228.012177 
	C143.150101,227.728943 143.106186,227.299103 143.123199,226.549683 
z"/>
<path fill="#62B74F" opacity="1.000000" stroke="none" 
	d="
M196.805511,221.732758 
	C196.567261,221.793869 196.374908,221.575027 196.124268,221.125626 
	C196.375275,220.994156 196.637085,221.180069 196.805511,221.732758 
z"/>
<path fill="#84BF54" opacity="1.000000" stroke="none" 
	d="
M435.370300,254.965881 
	C435.378937,254.789139 435.629761,254.596359 435.980164,254.610626 
	C436.079742,254.817657 435.612549,254.949875 435.370300,254.965881 
z"/>
<path fill="#53B44E" opacity="1.000000" stroke="none" 
	d="
M236.724701,196.018326 
	C236.852829,196.199982 236.709366,196.455215 236.355652,196.833572 
	C236.073227,196.615952 236.175812,196.327698 236.724701,196.018326 
z"/>
<path fill="#68B850" opacity="1.000000" stroke="none" 
	d="
M201.799103,229.739029 
	C201.558731,229.801147 201.366745,229.583069 201.119659,229.133148 
	C201.372055,229.001663 201.633026,229.187485 201.799103,229.739029 
z"/>
<path fill="#7ABD53" opacity="1.000000" stroke="none" 
	d="
M209.563004,240.525208 
	C209.696014,240.659882 209.809464,240.830338 209.922928,241.000793 
	C209.833191,240.956436 209.743454,240.912064 209.564056,240.736023 
	C209.474396,240.604340 209.543457,240.560989 209.563004,240.525208 
z"/>
<path fill="#000000" opacity="1.000000" stroke="none" 
	d="
M419.103455,215.629929 
	C419.123322,218.707550 419.076447,221.411285 419.098206,224.561295 
	C416.522675,228.429855 413.878540,231.852158 411.098755,235.576050 
	C405.325134,239.076797 399.697418,242.294189 394.040466,245.459229 
	C392.953278,246.067520 391.751099,246.470322 389.960815,247.245544 
	C389.960815,243.742889 389.960815,240.822510 389.897858,237.456146 
	C389.874634,231.653427 389.914337,226.296707 389.891205,220.477203 
	C389.881561,219.523224 389.992981,219.030380 389.979340,218.541016 
	C389.721191,209.292892 388.594696,207.835815 400.631256,208.004532 
	C404.755463,208.062347 408.905396,207.751755 412.995026,208.131836 
	C414.815063,208.300980 416.514893,209.763397 418.634583,211.164337 
	C419.058716,212.123398 419.117554,212.556961 419.176392,212.990509 
	C419.129822,213.745697 419.083252,214.500870 419.103455,215.629929 
z"/>
<path fill="#84BF54" opacity="1.000000" stroke="none" 
	d="
M360.544006,252.125763 
	C360.470825,252.161530 360.449921,251.850449 360.449921,251.850449 
	C360.449921,251.850449 360.617188,252.089981 360.544006,252.125763 
z"/>
<path fill="#62B74F" opacity="1.000000" stroke="none" 
	d="
M419.419434,212.912415 
	C419.117554,212.556961 419.058716,212.123398 418.954529,211.364212 
	C419.160278,211.637146 419.411377,212.235733 419.419434,212.912415 
z"/>
</svg>